<svg xmlns="http://www.w3.org/2000/svg" viewBox="0 0 24.46 18"><defs><style>.cls-1{fill:#fff;fill-rule:evenodd;}</style></defs><title>Ресурс 352</title><g id="Слой_2" data-name="Слой 2"><g id="Слой_1-2" data-name="Слой 1"><path class="cls-1" d="M18.69,0c1.95,2,3.85,3.85,5.77,5.75a1.57,1.57,0,0,1-.25.27l-7.12,7.13c-1.54,1.54-3.07,3.09-4.6,4.63-.3.3-.23.29-.53,0-1.74-1.74-3.5-3.46-5.21-5.23C4.59,10.3,2.35,8.14.18,5.92L.06,5.8C0,5.73,0,5.67.05,5.6l.16-.16L5.43.21,5.55.09c.1-.12.19-.11.3,0L6.9,1.15l.39.41L11.92,6.2l.1.09c.25.26.22.24.45,0l6-6A1.81,1.81,0,0,0,18.69,0Z"/></g></g></svg>