<svg viewBox="0 0 58.37 50.2" xmlns="http://www.w3.org/2000/svg"><g fill="#76bd22"><path d="m12.86 8h20.22a1 1 0 0 1 .54.17l7.32 5.13a.93.93 0 0 1 -.53 1.7h-21.68a.93.93 0 0 1 -.62-.23l-5.86-5.13a.93.93 0 0 1 .61-1.64z" opacity=".5"/><path d="m2.74 0h17.48a.8.8 0 0 1 .47.15l6.31 4.43a.82.82 0 0 1 -.47 1.48h-18.72a.88.88 0 0 1 -.54-.2l-5.07-4.44a.81.81 0 0 1 .54-1.42z" opacity=".5"/><path d="m25 16h23.7a.93.93 0 0 1 .62.24l8.58 7.33c.88.75.45 2.43-.62 2.43h-25.39a1 1 0 0 1 -.72-.33l-6.87-7.33c-.76-.81-.3-2.34.7-2.34z" opacity=".5"/></g><g fill="#606060" opacity=".75"><path d="m57.16 50.2h-17.4c-2.68 0-5.36 0-8 0a15.31 15.31 0 0 1 -2.29-.2 2.7 2.7 0 0 1 -1.47-.86l-7.21-7.28a2.59 2.59 0 0 1 -.79-1.93q0-11.22 0-22.45c0-.24 0-.49 0-.78.33 0 .59-.05.86-.05h26.14a2.73 2.73 0 0 1 2.08.85c1.69 1.72 3.41 3.41 5.12 5.11q.63.61 1.29 1.2a5 5 0 0 1 1.74 4.07c0 1.91-.07 3.81-.07 5.72q0 6 0 12v3.9c.05.18.02.41 0 .7zm-13.59-1h9 1.51a2 2 0 0 0 2.12-2.14c0-.37 0-.75 0-1.13v-13.17c0-1 0-2.1 0-3.15a1.88 1.88 0 0 0 -1.74-2 3.82 3.82 0 0 0 -.68-.05c-.53 0-1 0-1.58 0-3.33 0-6.66.07-10 .07-2.87 0-5.74-.05-8.62-.07a4.68 4.68 0 0 0 -1 .09 1.83 1.83 0 0 0 -1.58 1.74 8.47 8.47 0 0 0 -.06 1.13v5.41 9.55a19.2 19.2 0 0 0 0 2 1.71 1.71 0 0 0 1.54 1.65 7.94 7.94 0 0 0 1.38.09c1.69 0 3.39 0 5.09-.06 1.56 0 3.05.01 4.62.01zm-15-.3a4.07 4.07 0 0 0 1.43-3.25c-.07-1.17 0-2.35 0-3.52v-13.08c0-.23 0-.46 0-.69a2.12 2.12 0 0 0 -.7-1.56c-1.73-1.76-3.44-3.55-5.17-5.31-.59-.6-1.2-1.18-1.82-1.79a4.58 4.58 0 0 1 -.54.28 1 1 0 0 0 -.77 1.12q0 9.18 0 18.37a3 3 0 0 0 .85 2.15c2.12 2.23 4.21 4.49 6.31 6.75.17.14.26.31.4.5zm27-23.79a.92.92 0 0 0 -.07-.11l-7.22-6.72a1.75 1.75 0 0 0 -1.28-.53c-2.52 0-5 0-7.55 0h-1.79c-.22 0-.42 0-.55.23s-.45.75-.68 1.13l.33.35 7 6.44a2.22 2.22 0 0 0 1.59.63h8.24c1.43 0 1.43 0 2-1.31a.22.22 0 0 0 0-.14zm-13.86.2a2.15 2.15 0 0 0 -.18-.24l-7.12-6.83a1.69 1.69 0 0 0 -1.24-.5h-8.61c-1.11 0-1.11 0-1.5 1a.67.67 0 0 0 0 .16 3.29 3.29 0 0 0 .27.31c2.23 2.21 4.46 4.41 6.68 6.64a2.06 2.06 0 0 0 1.57.63h8.42c1.14 0 1.14 0 1.66-1 .03-.06.04-.12.07-.2z"/><path d="m10 9.07h18.9 3.39a1.8 1.8 0 0 1 1.41.55c1 1 1.95 2 2.93 2.95a.91.91 0 0 1 .33.87h-.54a.56.56 0 0 1 -.58-.28 7.14 7.14 0 0 0 -6.25-3.12c-1.84 0-3.69.1-5.53.1-3.71 0-7.42 0-11.13-.06h-.86c.18.23.26.37.36.48l4.3 4.5a3.45 3.45 0 0 1 .26.28.45.45 0 0 1 0 .71c-.29.3-.46.33-.76.08a4.45 4.45 0 0 1 -.48-.49c-1-1.11-2-2.23-3-3.34a2.22 2.22 0 0 1 -.22-.34c-.37.17-.64.32-.93.43a.71.71 0 0 0 -.5.71c-.03 1-.1 1.9-.1 2.9v12.07a5.89 5.89 0 0 0 1.47 4c.78.91 1.64 1.74 2.46 2.6.48.5 1 1 1.45 1.49a1.1 1.1 0 0 1 .29 1.11 1.2 1.2 0 0 1 -1-.39l-5-5a2.4 2.4 0 0 1 -.7-1.76q.03-10.12.03-20.32c0-.21 0-.41 0-.73z"/><path d="m6.76 27.28a1.43 1.43 0 0 1 -1.12-.46l-5-4.95a2.15 2.15 0 0 1 -.64-1.59v-15.34-3.21c.53 0 1-.11 1.52-.11q8.67 0 17.35 0a3 3 0 0 1 1.22.25 11.38 11.38 0 0 1 4 3 2.5 2.5 0 0 1 .29.41c.19.33.19.39 0 .9a1 1 0 0 1 -1.17-.48 7.11 7.11 0 0 0 -6.06-3.14c-1.33 0-2.68.09-4 .09-2.36 0-4.73 0-7.1 0-1.23 0-2.47.14-3.7.22 0 0-.06 0-.14.11.13.15.25.31.39.45q1.83 2 3.67 3.88a1.38 1.38 0 0 1 .41 1.17 1.06 1.06 0 0 1 -1-.35c-.6-.65-1.2-1.29-1.79-1.94s-1.1-1.35-1.66-2c-.12-.13-.26-.25-.49-.47a16.83 16.83 0 0 0 -.74 3.19v5.91s.05 3.9 0 5.84a4.5 4.5 0 0 0 1.25 3.19c.75.82 1.55 1.6 2.32 2.4.6.61 1.19 1.24 1.8 1.85a1.38 1.38 0 0 1 .39 1.18z"/><path d="m51.39 45a2.27 2.27 0 0 1 0-.59.53.53 0 0 1 .29-.33.49.49 0 0 1 .4.18 4.12 4.12 0 0 1 .31.74z"/><path d="m47.52 45a4.43 4.43 0 0 1 .18-.72.26.26 0 0 1 .51 0 5.6 5.6 0 0 1 .27.74z"/></g></svg>