<svg viewBox="0 0 67.89 42.05" xmlns="http://www.w3.org/2000/svg"><path d="m34.89 0 33 13v25h-33z" fill="#76bd22" opacity=".5"/><g fill="#606060" opacity=".75" stroke="#fff" stroke-miterlimit="10" stroke-width=".25"><path d="m.12 41.92v-40.08a13.48 13.48 0 0 1 2.94-.39h14.78c3.41 0 6.83-.07 10.24-.11a22.92 22.92 0 0 1 8.48 1.55c3.7 1.41 7.37 2.89 11.06 4.33l15.79 6.17c.23.09.47.18.7.29a1.81 1.81 0 0 1 1.15 1.78v5.66.63 14 4.53a5.24 5.24 0 0 1 -.08.88.67.67 0 0 1 -.6.63c-.24 0-.49.08-.74.1s-.55 0-.82 0h-62.9zm32-39.17a13 13 0 0 0 -.37 2.58q0 15.94 0 31.89v1.44a1.89 1.89 0 0 0 1.94 1.91h24.86 3.2a2 2 0 0 0 2.14-1.92 4.32 4.32 0 0 0 0-.5c0-2-.05-3.94-.05-5.91 0-3.44 0-6.88 0-10.32 0-1.44.07-2.89.06-4.33a3.51 3.51 0 0 0 -2.12-3.37 9.28 9.28 0 0 0 -.86-.37l-10.15-3.95-18-6.9zm-19.84 10.8a2.15 2.15 0 0 1 -.06-.37c0-.6.08-.72.68-.83h.19a1.88 1.88 0 0 0 1.47-.84 2.49 2.49 0 0 0 .55-1.63c0-1.6 0-3.19 0-4.78 0-1.43-.56-2.49-2.52-2.45-2.8.06-5.61 0-8.42 0-.46 0-.93 0-1.38 0a1.8 1.8 0 0 0 -1.7 1.72 7.48 7.48 0 0 0 0 .82v31.81 1.51a1.94 1.94 0 0 0 2.19 2.11h2.9 7a1.59 1.59 0 0 0 1.82-1.62 13.76 13.76 0 0 0 .12-1.81c0-1 0-2 0-3a2.27 2.27 0 0 0 -2.35-2.35h-.46a2.84 2.84 0 0 1 -.05-.38 4.92 4.92 0 0 1 0-.52c.23 0 .43 0 .63-.08a2.38 2.38 0 0 0 2.19-2.29 3.37 3.37 0 0 0 0-.44c0-1.26 0-2.52 0-3.77 0-2.48 0-4.95 0-7.42a6.76 6.76 0 0 0 -.08-1.65 2.13 2.13 0 0 0 -2-1.69zm6.82 18.28h-.36a2.24 2.24 0 0 0 -2.41 2.47c0 1.46.16 2.92 0 4.39a1.57 1.57 0 0 0 .05.37 1.64 1.64 0 0 0 1.4 1.42 4.8 4.8 0 0 0 1 .06h7.86 1.89a1.72 1.72 0 0 0 1.77-1.74c0-.23 0-.46 0-.7 0-2.53 0-5.07 0-7.6q0-12.67 0-25.34c0-.27 0-.55 0-.82a1.74 1.74 0 0 0 -1.75-1.71h-.75-5.91c-1.18 0-2.35 0-3.52 0a1.9 1.9 0 0 0 -2.06 2.1v2.64s0 1.89.08 2.82a2.15 2.15 0 0 0 2 2.13c.81.14 1 .48.64 1.33l-.79.06a1.94 1.94 0 0 0 -1.92 2.07v.51 3.9c0 2.66.07 5.32.08 8a2.26 2.26 0 0 0 .63 1.59 2.49 2.49 0 0 0 1.47.88c.75.16.85.42.6 1.17z"/><path d="m39.54 36.9a1.84 1.84 0 0 1 -.63-1.45c0-3.54 0-7.09 0-10.63 0-4.36 0-8.72 0-13.08a2.07 2.07 0 0 1 .58-1.43 1.91 1.91 0 0 1 .51 1.26c0 1.51.06 3 .07 4.53q0 8.87 0 17.73v1.89a1.56 1.56 0 0 1 -.53 1.18z"/><path d="m47.79 13.13a1.51 1.51 0 0 1 .64 1.26v12.26 9a1.68 1.68 0 0 1 -.57 1.35 1.92 1.92 0 0 1 -.68-1.48c0-3.31 0-6.62 0-9.93 0-2.29 0-4.57 0-6.86 0-1.44.06-2.89.07-4.33a1.73 1.73 0 0 1 .54-1.27z"/><path d="m56.25 17.33a1.52 1.52 0 0 1 .49 1.18c0 3.59.07 7.17.08 10.76 0 2.2-.06 4.4-.07 6.6a1.49 1.49 0 0 1 -.54 1.13 1.38 1.38 0 0 1 -.58-1.14c0-2.45 0-4.9 0-7.36 0-1.61 0-3.22 0-4.84s0-3.48.05-5.22a1.58 1.58 0 0 1 .57-1.11z"/></g></svg>